Coordinates
version=1
nRows=4
nColumns=63
inDegrees=yes

Units are S.I. units (second, meters, Newtons, ...)
If the header above contains a line with 'inDegrees', this indicates whether rotational values are in degrees (yes) or radians (no).

endheader
time	pelvis_tilt	pelvis_list	pelvis_rotation	pelvis_tx	pelvis_ty	pelvis_tz	hip_flexion_r	hip_adduction_r	hip_rotation_r	knee_angle_r	knee_angle_r_beta	ankle_angle_r	subtalar_angle_r	mtp_angle_r	hip_flexion_l	hip_adduction_l	hip_rotation_l	knee_angle_l	knee_angle_l_beta	ankle_angle_l	subtalar_angle_l	mtp_angle_l	L5_S1_Flex_Ext	L5_S1_Lat_Bending	L5_S1_axial_rotation	L4_L5_Flex_Ext	L4_L5_Lat_Bending	L4_L5_axial_rotation	L3_L4_Flex_Ext	L3_L4_Lat_Bending	L3_L4_axial_rotation	L2_L3_Flex_Ext	L2_L3_Lat_Bending	L2_L3_axial_rotation	L1_L2_Flex_Ext	L1_L2_Lat_Bending	L1_L2_axial_rotation	L1_T12_Flex_Ext	L1_T12_Lat_Bending	L1_T12_axial_rotation	Abs_r3	Abs_r2	Abs_r1	Abs_t1	Abs_t2	neck_flexion	neck_bending	neck_rotation	arm_flex_r	arm_add_r	arm_rot_r	elbow_flex_r	pro_sup_r	wrist_flex_r	wrist_dev_r	arm_flex_l	arm_add_l	arm_rot_l	elbow_flex_l	pro_sup_l	wrist_flex_l	wrist_dev_l
     14.46666667	      7.41999965	      2.44268407	    174.88856501	     -0.15814102	      0.86659963	      0.82623878	     -2.08168581	      0.18085912	    -10.84517229	     30.66962614	      0.53528596	     25.19806308	     -2.74146519	      0.00000000	     35.02506930	     -5.57758825	    -12.88757155	     16.56081467	      0.28904074	      6.14741907	     -4.13104772	      0.00000000	      0.00008500	      0.23546443	      1.30841542	      0.00015785	      0.31316769	      1.39019138	      0.00013964	      0.57250821	      1.39019138	      0.00009714	      0.57250821	      1.14486349	      0.00007893	      0.48015906	      1.06308753	      0.00004857	      0.36473440	      0.98131157	      0.00060712	      2.66362069	      7.27701405	      0.00000000	      0.00000000	     -0.00000000	      0.00000000	      0.00000000	     10.72984883	    -16.28748297	      9.95789850	     39.83984551	     42.78266129	      0.00000000	      5.00000014	    -17.40650934	    -13.06962789	     16.23146132	     28.93458631	     52.46244728	      0.00000000	      5.00000014
     14.50000000	      7.16142753	      1.89479976	    175.69895459	     -0.20213525	      0.86761766	      0.83060339	     -0.25831938	     -0.54674208	     -6.83884562	     38.73757483	      0.67609823	     17.64708297	    -11.93789440	      0.00000000	     33.23936814	     -4.34309202	    -13.74155761	     17.70901432	      0.30908061	      6.20823502	     -5.03928660	      0.00000000	     -0.00007103	      0.14901538	      1.17443370	     -0.00013191	      0.19819045	      1.24783581	     -0.00011669	      0.36231598	      1.24783581	     -0.00008118	      0.36231598	      1.02762949	     -0.00006596	      0.30387215	      0.95422738	     -0.00004059	      0.23082482	      0.88082528	     -0.00050734	      1.68569173	      6.53184793	      0.00000000	      0.00000000	     -0.00000000	      0.00000000	      0.00000000	      8.65519070	    -15.46060999	      8.92713990	     40.03494958	     42.75398853	      0.00000000	      5.00000014	    -17.06610915	    -12.51506310	     14.30075222	     28.42894730	     51.67281840	      0.00000000	      5.00000014
     14.53333333	      6.71772487	      1.15070132	    176.70522437	     -0.24702214	      0.87090924	      0.83507040	      2.47169732	     -2.07635810	     -5.21419723	     47.54369969	      0.82979410	      8.80566975	    -16.10928164	      0.00000000	     30.65113830	     -2.80540359	    -14.14111153	     18.53475967	      0.32349258	      6.85983073	     -5.33949439	      0.00000000	     -0.00134464	      0.03681243	      1.00077994	     -0.00249712	      0.04896053	      1.06332869	     -0.00220910	      0.08950574	      1.06332869	     -0.00153679	      0.08950574	      0.87568245	     -0.00124863	      0.07506791	      0.81313370	     -0.00076833	      0.05702245	      0.75058495	     -0.00960460	      0.41642956	      5.56603779	      0.00000000	      0.00000000	     -0.00000000	      0.00000000	      0.00000000	      6.22227317	    -14.42318716	      8.48248994	     39.29602489	     42.71736654	      0.00000000	      5.00000014	    -16.27879580	    -12.38405292	     13.04232022	     28.26066565	     51.13392938	      0.00000000	      5.00000014
     14.56666667	      6.13843678	      0.59144343	    178.08388028	     -0.29180473	      0.87579316	      0.83984294	      5.82748423	     -3.67901470	     -4.64349969	     55.74638936	      0.97295804	      0.38868830	    -17.40013849	      0.00000000	     27.46407497	     -1.25032709	    -13.68584588	     18.95210805	      0.33077669	      8.19153922	     -5.03478719	      0.00000000	     -0.00236551	     -0.05127979	      0.75268535	     -0.00439298	     -0.06820213	      0.79972819	     -0.00388629	     -0.12468169	      0.79972819	     -0.00270354	     -0.12468169	      0.65859969	     -0.00219661	     -0.10456976	      0.61155685	     -0.00135165	     -0.07943240	      0.56451402	     -0.01689659	     -0.58008729	      4.18621014	      0.00000000	      0.00000000	     -0.00000000	      0.00000000	      0.00000000	      3.54671945	    -13.44665662	      8.55944391	     37.94419939	     42.69191429	      0.00000000	      5.00000014	    -14.83526215	    -12.31521200	     12.02354392	     27.99156713	     50.74100515	      0.00000000	      5.00000014
